{"title":"\nBlue Mountains 2017 Hindi DVDRip x264 AAC { TaRa }","magnet":"magnet:?xt=urn:btih:2e12a0f4a07884aface3fe698a107eec1767ed61&dn=Blue+Mountains+2017+Hindi+DVDRip+x264+AAC+%7B+TaRa+%7D&tr=udp%3A%2F%2Ftracker.leechers-paradise.org%3A6969&tr=udp%3A%2F%2Fzer0day.ch%3A1337&tr=udp%3A%2F%2Fopen.demonii.com%3A1337&tr=udp%3A%2F%2Ftracker.coppersurfer.tk%3A6969&tr=udp%3A%2F%2Fexodus.desync.com%3A6969","uploader":"SkTaRa","categoryP":"video","categoryS":"movies_dvdr","size":"1231891268","seeders":"24","leechers":"102","description":"===================================================================\r\nGeneral\r\nComplete name               : Blue Mountains 2017 Hindi DVDRip x264 AAC { TaRa }.mkv\r\nFormat                      : Matroska\r\nFormat version              : Version 4 / Version 2\r\nFile size                   : 1.15 GiB\r\nDuration                    : 2 h 15 min\r\nOverall bit rate            : 1 209 kb/s\r\n===================================================================\r\nVideo\r\nID                          : 1\r\nFormat                      : AVC\r\nFormat/Info                 : Advanced Video Codec\r\nFormat profile              : <a href=\"/cdn-cgi/l/email-protection\" class=\"__cf_email__\" data-cfemail=\"8ec6e7e9e6cec2bda0bf\">[email&#xA0;protected]</a>\r\nFormat settings, CABAC      : Yes\r\nFormat settings, RefFrames  : 8 frames\r\nCodec ID                    : V_MPEG4/ISO/AVC\r\nDuration                    : 2 h 15 min\r\nBit rate                    : 1 081 kb/s\r\nWidth                       : 720 pixels\r\nHeight                      : 304 pixels\r\nDisplay aspect ratio        : 2.35:1\r\nFrame rate mode             : Constant\r\nFrame rate                  : 23.976 (24000/1001) FPS\r\nColor space                 : YUV\r\nChroma subsampling          : 4:2:0\r\nBit depth                   : 8 bits\r\nScan type                   : Progressive\r\nBits/(Pixel*Frame)          : 0.206\r\nStream size                 : 1.03 GiB (89%)\r\nTitle                       : .....::::: TaRa :::::.....\r\nLanguage                    : Hindi\r\nDefault                     : Yes\r\nForced                      : No\r\n===================================================================\r\nAudio\r\nID                          : 2\r\nFormat                      : AAC\r\nFormat/Info                 : Advanced Audio Codec\r\nFormat profile              : LC\r\nCodec ID                    : A_AAC\r\nDuration                    : 2 h 15 min\r\nBit rate                    : 126 kb/s\r\nChannel(s)                  : 2 channels\r\nChannel positions           : Front: L R\r\nSampling rate               : 44.1 kHz\r\nFrame rate                  : 43.066 FPS (1024 SPF)\r\nCompression mode            : Lossy\r\nStream size                 : 122 MiB (10%)\r\nTitle                       : .....::::: TaRa :::::.....\r\nLanguage                    : Hindi\r\nDefault                     : Yes\r\nForced                      : No\r\n=================================================================== <a href=\"\nhttp://ssec.life/i/image/aHDr\" rel=\"nofollow\" target=\"_NEW\">\nhttp://ssec.life/i/image/aHDr</a> <a href=\"\nhttp://ssec.life/i/image/a9JS\" rel=\"nofollow\" target=\"_NEW\">\nhttp://ssec.life/i/image/a9JS</a> <a href=\"\nhttp://ssec.life/i/image/auKC\" rel=\"nofollow\" target=\"_NEW\">\nhttp://ssec.life/i/image/auKC</a> <a href=\"\nhttp://ssec.life/i/image/axQy\" rel=\"nofollow\" target=\"_NEW\">\nhttp://ssec.life/i/image/axQy</a> <a href=\"\nhttp://ssec.life/i/image/a8Vx\" rel=\"nofollow\" target=\"_NEW\">\nhttp://ssec.life/i/image/a8Vx</a> <a href=\"\nhttp://ssec.life/i/image/aruB\" rel=\"nofollow\" target=\"_NEW\">\nhttp://ssec.life/i/image/aruB</a> <a href=\"\nhttp://ssec.life/i/image/ap2A\" rel=\"nofollow\" target=\"_NEW\">\nhttp://ssec.life/i/image/ap2A</a> <a href=\"\nhttp://ssec.life/i/image/aQB9\" rel=\"nofollow\" target=\"_NEW\">\nhttp://ssec.life/i/image/aQB9</a> <a href=\"\nhttp://ssec.life/i/image/aaww\" rel=\"nofollow\" target=\"_NEW\">\nhttp://ssec.life/i/image/aaww</a> <a href=\"\nhttp://ssec.life/i/image/ainO\" rel=\"nofollow\" target=\"_NEW\">\nhttp://ssec.life/i/image/ainO</a> <a href=\"\nhttp://ssec.life/i/image/aqeG\" rel=\"nofollow\" target=\"_NEW\">\nhttp://ssec.life/i/image/aqeG</a> <a href=\"\nhttp://ssec.life/i/image/azDL\" rel=\"nofollow\" target=\"_NEW\">\nhttp://ssec.life/i/image/azDL</a> <a href=\"\nhttp://ssec.life/i/image/aeKz\" rel=\"nofollow\" target=\"_NEW\">\nhttp://ssec.life/i/image/aeKz</a> <a href=\"\nhttp://ssec.life/i/image/a6aT\" rel=\"nofollow\" target=\"_NEW\">\nhttp://ssec.life/i/image/a6aT</a> <a href=\"\nhttp://ssec.life/i/image/aOVl\" rel=\"nofollow\" target=\"_NEW\">\nhttp://ssec.life/i/image/aOVl</a> <a href=\"\nhttp://ssec.life/i/image/a5xc\" rel=\"nofollow\" target=\"_NEW\">\nhttp://ssec.life/i/image/a5xc</a> <a href=\"\nhttp://ssec.life/i/image/av7a\" rel=\"nofollow\" target=\"_NEW\">\nhttp://ssec.life/i/image/av7a</a> <a href=\"\nhttp://ssec.life/i/image/aIEP\" rel=\"nofollow\" target=\"_NEW\">\nhttp://ssec.life/i/image/aIEP</a> <a href=\"\nhttp://ssec.life/i/image/aBBV\" rel=\"nofollow\" target=\"_NEW\">\nhttp://ssec.life/i/image/aBBV</a> <a href=\"\nhttp://ssec.life/i/image/ayeN\" rel=\"nofollow\" target=\"_NEW\">\nhttp://ssec.life/i/image/ayeN</a> <a href=\"\nhttp://ssec.life/i/image/aU02\" rel=\"nofollow\" target=\"_NEW\">\nhttp://ssec.life/i/image/aU02</a> <a href=\"\nhttp://ssec.life/i/image/a4Fd\" rel=\"nofollow\" target=\"_NEW\">\nhttp://ssec.life/i/image/a4Fd</a> <a href=\"\nhttp://ssec.life/i/image/aSav\" rel=\"nofollow\" target=\"_NEW\">\nhttp://ssec.life/i/image/aSav</a> <a href=\"\nhttp://ssec.life/i/image/aWm0\" rel=\"nofollow\" target=\"_NEW\">\nhttp://ssec.life/i/image/aWm0</a> <a href=\"\nhttp://ssec.life/i/image/ao7Z\" rel=\"nofollow\" target=\"_NEW\">\nhttp://ssec.life/i/image/ao7Z</a> <a href=\"\nhttp://ssec.life/i/image/aDxe\" rel=\"nofollow\" target=\"_NEW\">\nhttp://ssec.life/i/image/aDxe</a>","last_updated":"2017-10-09T12:10:37.013Z","parsed":{"xt":"urn:btih:2e12a0f4a07884aface3fe698a107eec1767ed61","dn":"Blue Mountains 2017 Hindi DVDRip x264 AAC { TaRa }","tr":["udp://exodus.desync.com:6969","udp://open.demonii.com:1337","udp://tracker.coppersurfer.tk:6969","udp://tracker.leechers-paradise.org:6969","udp://zer0day.ch:1337"],"infoHash":"2e12a0f4a07884aface3fe698a107eec1767ed61","infoHashBuffer":{"type":"Buffer","data":[46,18,160,244,160,120,132,175,172,227,254,105,138,16,126,236,23,103,237,97]},"name":"Blue Mountains 2017 Hindi DVDRip x264 AAC { TaRa }","announce":["udp://exodus.desync.com:6969","udp://open.demonii.com:1337","udp://tracker.coppersurfer.tk:6969","udp://tracker.leechers-paradise.org:6969","udp://zer0day.ch:1337"],"urlList":[]}}